# xmcd
#
# Track frame offsets: 
#        150
#        18788
#        35631
#        53956
#        71947
#        91652
#        104933
#        119913
#        137755
#        153218
#        175878
#        192998
#        207887
#        259640
#
# Disc length: 4440 seconds
#
# Revision: 12
# Processed by: cddbd v1.5.2PL0 Copyright (c) Steve Scherf et al.
# Submitted via: ExactAudioCopy v1.0b3
#
DISCID=cd11560e
DTITLE=Michelle - Leben!
DYEAR=2005
DGENRE=Schlager
TTITLE0=Vielleicht nur einmal im Leben
TTITLE1=Sag es noch einmal
TTITLE2=So tief
TTITLE3=Ich hab Dich nie vergessen
TTITLE4=Du bist ein Teil von mir
TTITLE5=Fliegen
TTITLE6=Ich bin wieder da
TTITLE7=Heller als die Sonne
TTITLE8=In einem Bett aus Rosen
TTITLE9=Du
TTITLE10=Alle Liebe dieser Welt
TTITLE11=Du bist mehr als nur ein Freund
TTITLE12=Hit Medley 2005
TTITLE13=Michelle - Daten-CD
EXTD=YEAR: 2005
EXTT0=
EXTT1=
EXTT2=
EXTT3=
EXTT4=
EXTT5=
EXTT6=
EXTT7=
EXTT8=
EXTT9=
EXTT10=
EXTT11=
EXTT12=
EXTT13=
PLAYORDER=
